<svg id="visual" viewBox="0 0 960 110" width="960" height="110" xmlns="http://www.w3.org/2000/svg" xmlns:xlink="http://www.w3.org/1999/xlink" version="1.1"><rect x="0" y="0" width="960" height="110" fill="#002233"></rect><path d="M0 72L26.7 73C53.3 74 106.7 76 160 73.7C213.3 71.3 266.7 64.7 320 53.8C373.3 43 426.7 28 480 29.3C533.3 30.7 586.7 48.3 640 58.3C693.3 68.3 746.7 70.7 800 71.5C853.3 72.3 906.7 71.7 933.3 71.3L960 71L960 0L933.3 0C906.7 0 853.3 0 800 0C746.7 0 693.3 0 640 0C586.7 0 533.3 0 480 0C426.7 0 373.3 0 320 0C266.7 0 213.3 0 160 0C106.7 0 53.3 0 26.7 0L0 0Z" fill="#0066FF" stroke-linecap="round" stroke-linejoin="miter"></path></svg>