<svg id="visual" viewBox="0 0 960 110" width="960" height="110" xmlns="http://www.w3.org/2000/svg" xmlns:xlink="http://www.w3.org/1999/xlink" version="1.1"><rect x="0" y="0" width="960" height="110" fill="#002233"></rect><path d="M0 73L17.8 72.2C35.7 71.3 71.3 69.7 106.8 71C142.3 72.3 177.7 76.7 213.2 77C248.7 77.3 284.3 73.7 320 65.8C355.7 58 391.3 46 426.8 39C462.3 32 497.7 30 533.2 30.3C568.7 30.7 604.3 33.3 640 38.5C675.7 43.7 711.3 51.3 746.8 50.5C782.3 49.7 817.7 40.3 853.2 39C888.7 37.7 924.3 44.3 942.2 47.7L960 51L960 111L942.2 111C924.3 111 888.7 111 853.2 111C817.7 111 782.3 111 746.8 111C711.3 111 675.7 111 640 111C604.3 111 568.7 111 533.2 111C497.7 111 462.3 111 426.8 111C391.3 111 355.7 111 320 111C284.3 111 248.7 111 213.2 111C177.7 111 142.3 111 106.8 111C71.3 111 35.7 111 17.8 111L0 111Z" fill="#0066FF" stroke-linecap="round" stroke-linejoin="miter"></path></svg>