<svg id="visual" viewBox="0 0 960 110" width="960" height="110" xmlns="http://www.w3.org/2000/svg" xmlns:xlink="http://www.w3.org/1999/xlink" version="1.1"><rect x="0" y="0" width="960" height="110" fill="#002233"></rect><path d="M0 38L22.8 37.2C45.7 36.3 91.3 34.7 137 42.2C182.7 49.7 228.3 66.3 274 65.7C319.7 65 365.3 47 411.2 38.2C457 29.3 503 29.7 548.8 39C594.7 48.3 640.3 66.7 686 72.3C731.7 78 777.3 71 823 64.5C868.7 58 914.3 52 937.2 49L960 46L960 111L937.2 111C914.3 111 868.7 111 823 111C777.3 111 731.7 111 686 111C640.3 111 594.7 111 548.8 111C503 111 457 111 411.2 111C365.3 111 319.7 111 274 111C228.3 111 182.7 111 137 111C91.3 111 45.7 111 22.8 111L0 111Z" fill="#0066FF" stroke-linecap="round" stroke-linejoin="miter"></path></svg>