<svg id="visual" viewBox="0 0 900 110" width="900" height="110" xmlns="http://www.w3.org/2000/svg" xmlns:xlink="http://www.w3.org/1999/xlink" version="1.1"><rect x="0" y="0" width="900" height="110" fill="#002233"></rect><path d="M0 32L30 36C60 40 120 48 180 48.3C240 48.7 300 41.3 360 43.8C420 46.3 480 58.7 540 65.2C600 71.7 660 72.3 720 65.7C780 59 840 45 870 38L900 31L900 0L870 0C840 0 780 0 720 0C660 0 600 0 540 0C480 0 420 0 360 0C300 0 240 0 180 0C120 0 60 0 30 0L0 0Z" fill="#0066FF" stroke-linecap="round" stroke-linejoin="miter"></path></svg>